PathFileType	4	(X/Y/Z)	26_2_105_p1_0-643_filt_butterworth.trc
DataRate	CameraRate	NumFrames	NumMarkers	Units	OrigDataRate	OrigDataStartFrame	OrigNumFrames
59.0	59.0	6	27	m	59.0	562	643
Frame#	Time	RHip			RKnee			RAnkle			RBigToe			RSmallToe			RHeel			LHip			LKnee			LAnkle			LBigToe			LSmallToe			LHeel			Neck			Head			Nose			RShoulder			RElbow			RWrist			RThumb			RIndex			RPinky			LShoulder			LElbow			LWrist			LThumb			LIndex			LPinky			
		X1	Y1	Z1	X2	Y2	Z2	X3	Y3	Z3	X4	Y4	Z4	X5	Y5	Z5	X6	Y6	Z6	X7	Y7	Z7	X8	Y8	Z8	X9	Y9	Z9	X10	Y10	Z10	X11	Y11	Z11	X12	Y12	Z12	X13	Y13	Z13	X14	Y14	Z14	X15	Y15	Z15	X16	Y16	Z16	X17	Y17	Z17	X18	Y18	Z18	X19	Y19	Z19	X20	Y20	Z20	X21	Y21	Z21	X22	Y22	Z22	X23	Y23	Z23	X24	Y24	Z24	X25	Y25	Z25	X26	Y26	Z26	X27	Y27	Z27	
562	9.52542372881356	0.30296134907594724	0.48322520061141866	1.0199099837828265	0.2734786639283058	0.05588995151396092	1.053544965788412	0.23453737990524887	-0.40871372325697575	1.159380335127465	0.2100480296100775	-0.3099693894462456	0.866084553003235	0.2553558892488357	-0.3737823797483947	0.9594046468639028	0.23884173444766182	-0.4804100740931837	1.2269839430709042	0.08573801700366195	0.46847876687335954	1.0543479889458491	0.10261549443735667	0.06256766709533701	1.0747761753343195	0.12682175063444381	-0.41951170964745677	1.2007176204749652	0.0954593318386116	-0.33237004752641547	0.9112117481638075	0.05718423400884573	-0.3600618753089097	0.9955380942166301	0.13508632727618736	-0.5117767708916827	1.268787693087241	0.2097665959898401	1.0867765326869874	1.0478225999858206	0.2238833992905669	1.32844508817427	0.9721924221280192	0.21758641918746105	1.1992011868594357	0.9410685756700528	0.3475879155226685	1.0170302855279745	0.9997412955902205	0.3105902576533587	0.9420635433043634	0.7518288231527648	0.12702124406915186	1.0776747298153444	0.681052448321847	0.03878143275260329	1.1305018647272744	0.6765619921952231	0.03566995200687759	1.1462385841735365	0.6656583147062791	0.04866228337464013	1.0992003460543933	0.6604525812375244	0.06196713322808825	1.004220804732082	1.0720145444946556	-0.008845325859916594	0.7261991004911224	1.0898027895941924	-0.02529087938332871	0.461175550817071	1.0217868652671998	0.019620933017335605	0.3600747360838633	0.9740009335505306	0.002972474407212343	0.35090094791204834	0.9542876733560842	-0.03321086691015651	0.33047555136652895	1.0341279002767618	
563	9.542372881355933	0.30273187153962056	0.48328114305477204	1.0193491726647523	0.27269433640716634	0.05623720069382676	1.0518891311924028	0.23436268685274664	-0.40770876767700415	1.1588798304330863	0.20957345504038977	-0.3087455130367065	0.8659552786953578	0.25468221076154574	-0.37281511711127957	0.9591320467868614	0.23882625932781174	-0.4804828704153377	1.2271568835275186	0.08589534344747343	0.4685701438174788	1.0540438688032714	0.10217932031925259	0.06194545871469537	1.076498617205272	0.12685818939897636	-0.41936197281279747	1.2007680736479387	0.09549590225422386	-0.3312466407012997	0.9106426127090668	0.05773423959562375	-0.3582995118711134	0.9924660882092057	0.13516916283849748	-0.511924320978827	1.268998863850909	0.2103662508488168	1.0866977378573224	1.048228450717596	0.22429936694070485	1.3283818083876495	0.9699996222842571	0.21758211298543295	1.1991370472172433	0.9410016668873828	0.3484382293376438	1.0170742836467792	1.0001120505742533	0.3102899578519467	0.9415048660349128	0.7525002609665155	0.12197672577335163	1.0772756714586045	0.691278874530572	0.03408066939074558	1.1273411821287302	0.6886818711794558	0.031395546957092776	1.144253009315067	0.677265444240371	0.04450407970486259	1.1000998884188864	0.6632779627377821	0.06199781729831269	1.0041481574651538	1.072131348835057	-0.006822140688872181	0.7268865155104676	1.0928144840309977	-0.02503870698148372	0.46330588171376297	1.0209143165007484	0.020290136988659342	0.3621571544718393	0.9737566670798852	0.0031338320631041586	0.3511271808967021	0.954102699242168	-0.03270777723017026	0.33000778775655276	1.0369011516630993	
564	9.559322033898304	0.3024357049757717	0.48325130787234966	1.0186529485944824	0.27174606467748474	0.05655670508645022	1.0498804608198657	0.23412889497620865	-0.40673988646545406	1.1581573158373626	0.20900051928574673	-0.30773704874313945	0.8655822858657869	0.2539996805006038	-0.37176059697178576	0.9580550171751092	0.23874486986378035	-0.48071437584903925	1.2276073289311176	0.08592525734162872	0.4685851343171075	1.0538737095905089	0.10173241758950323	0.061210508012442266	1.0782652233245238	0.12689336107146898	-0.41927992879165266	1.2007804007050837	0.09549981913426311	-0.33023471567604323	0.9100702434917701	0.05797001189110691	-0.35626387508340346	0.9890405191008148	0.13525210204859867	-0.5120827265128289	1.2692198738129805	0.21107525450525605	1.0863279414211726	1.04854562504379	0.22491340222480855	1.3284106087517915	0.9674676358815346	0.217583159615189	1.1991740450037833	0.9409178288860001	0.34933079922563337	1.0170723867005957	1.0005071282301543	0.30989622166071235	0.9405115218493143	0.7527953931924217	0.11796624687032764	1.0767864437157937	0.700455889275722	0.029158690527892828	1.1234600653017779	0.7023275972312857	0.0266705059609717	1.1415269310006677	0.6900635194307427	0.04094519410802051	1.100807419735348	0.6667656785143039	0.06208350221860042	1.0043504046586256	1.0721508919477079	-0.004599975092149884	0.7272067465207679	1.0963543751662117	-0.025129297778336272	0.4646996919971931	1.0212515570461544	0.020379366064968787	0.36398343830973356	0.9734844226838597	0.003072605773566229	0.35119456351656514	0.953930149700826	-0.03209664917708855	0.32873055013586805	1.039511198377347	
565	9.576271186440678	0.3020818970999565	0.48312292037124915	1.0178340968767743	0.2706915103690599	0.056846790775015144	1.0476058679314468	0.23384230954646915	-0.40581164945461184	1.1572214508614833	0.20842685951922224	-0.30707114643204053	0.8649887682870081	0.25342154840660513	-0.37072984742058046	0.9563968716498576	0.23858796392630266	-0.48110110527262295	1.2283109575773439	0.08580529532413592	0.4685147662236761	1.0538613999671411	0.10117083423361102	0.06039076936084886	1.0799081075911519	0.12692519378057227	-0.41929288096483075	1.200746137681784	0.09547559914503574	-0.3296284382941591	0.909646984282256	0.05796118873702542	-0.3542837421145125	0.9858158620165826	0.1353285601488434	-0.5122369216422894	1.2694298353853382	0.2117508076182485	1.0857459988966136	1.04868856518667	0.22563943021461913	1.3284727004120174	0.9649007076711684	0.21759564178459936	1.1992324675770627	0.9408071431929643	0.3501702460242525	1.016914401149071	1.0009092131086859	0.30918247807398924	0.9393200097353213	0.752248609322687	0.11531048569272509	1.0761690011149663	0.7071930700533192	0.024704148630981627	1.11919687262148	0.7154506124982319	0.02210729959500233	1.1383511785268514	0.7022045765101648	0.03835279756785854	1.100921568708731	0.6703083489869869	0.06217636947275611	1.0047680438701432	1.0721738212051573	-0.0023820109601812387	0.7272591202667253	1.0999973982256974	-0.02558744598690757	0.4651806887597452	1.0227709119467692	0.020119065343017172	0.3650093267905822	0.9735647348832623	0.002844957480921423	0.3511768358205518	0.9537852771288537	-0.031414053182298826	0.32706645097604886	1.0411332875414099	
566	9.59322033898305	0.3016765146629269	0.482890358207449	1.016965972416049	0.26957703601875893	0.05709133841972441	1.0451786034511765	0.2335122744433156	-0.4049343965478565	1.156104902053472	0.20795878346460953	-0.30667039064701684	0.8642837724253619	0.253068643334285	-0.36977685430087154	0.9545723618442291	0.23834406162567082	-0.4816697424212078	1.2293085825860521	0.08557025965049124	0.4683508992986679	1.0540303709845	0.10050282145295858	0.059492593603721444	1.0812839989938032	0.12695347030079157	-0.41939980466470794	1.2006732588821452	0.09542778716051371	-0.3295679903557526	0.9094515992237043	0.05782085992006231	-0.3525433555515895	0.9831046454221618	0.13539631566977867	-0.5123842284514771	1.2696233518469684	0.21227404677243178	1.0850544681751029	1.0486436538958581	0.22641532462637629	1.3284359359081341	0.9625382578692164	0.21760226813025246	1.1991744063388974	0.9406754559134333	0.35085973359503575	1.0165419170716352	1.001293011234072	0.308211392450082	0.9382061294409048	0.7506854799843108	0.11398767172675481	1.0752515033957897	0.7113814311181985	0.021270140543175393	1.114902673611629	0.7265839527625044	0.01842356942561912	1.1348313759405777	0.712585818432904	0.03688426448765003	1.099935600980137	0.6741619444419022	0.06224333413743864	1.0052026829377272	1.0722246500500094	-0.0004060877768644136	0.7272068476592886	1.1033755011170738	-0.026355675550686485	0.464826335982478	1.0252157455046205	0.019538145781180682	0.36514531444705206	0.9739133273159992	0.0024348717971449697	0.35123682138912726	0.9536261672789308	-0.03092638162617344	0.32593623261035104	1.0412870197835533	
567	9.610169491525424	0.3012720175345363	0.48259403530157974	1.0161700786912684	0.26841553429713655	0.05730002909406301	1.0426760311054086	0.23314738111945071	-0.40412393406953095	1.1548421438738818	0.20770738222113744	-0.30634831482132974	0.8636254653168363	0.2530652433259761	-0.36902471274188997	0.9530949444113861	0.2380298640655786	-0.4824390757359316	1.2306578856671049	0.08531005200138264	0.46808319207672233	1.054438418829437	0.09981508941296648	0.05851016444075874	1.0823593788570738	0.12697967111660005	-0.4195892160484565	1.2005726749142225	0.09536276841222494	-0.33006181330351925	0.9095082588236612	0.05760557117882137	-0.35126637159924085	0.9812499780832431	0.13545724190191788	-0.5125303109786142	1.2698088031751489	0.2125643862132919	1.0843537961182148	1.0484663959812146	0.22715184197541327	1.3282047438327342	0.9606704465052778	0.2175746364464655	1.1989252014298784	0.9405465685738441	0.35130188229608506	1.0159948815943516	1.0016425192841976	0.3071800279722384	0.9370938794329344	0.7484621250754102	0.11383661247934566	1.0739874928390438	0.7132670735085356	0.01929768336749376	1.1108333197949456	0.7347797015220138	0.016312628274054074	1.1310015851914588	0.720405133370724	0.03643128443449338	1.0978297298763402	0.678361804944169	0.0622699875806718	1.0054315794186768	1.0722874512341176	0.0011552474781203834	0.7272409625087803	1.1061895237229717	-0.02734869213037442	0.46390413056292784	1.0282610509863122	0.018514829107479973	0.36480519956749563	0.9740729383558661	0.001834424501706389	0.35146196412339786	0.953490993599869	-0.03094588978487741	0.32605834702197733	1.0401671423739776	
